<?xml version="1.0" encoding="utf-8"?>
<!DOCTYPE svg PUBLIC "-//W3C//DTD SVG 1.1//EN" "http://www.w3.org/Graphics/SVG/1.1/DTD/svg11.dtd">
<svg class="marks" width="550" height="269" viewBox="0 0 550 269" version="1.1" xmlns="http://www.w3.org/2000/svg" xmlns:xlink="http://www.w3.org/1999/xlink"><rect width="550" height="269" fill="white"></rect><g fill="none" stroke-miterlimit="10" transform="translate(45,5)"><g class="mark-group role-frame root" role="graphics-object" aria-roledescription="group mark container"><g transform="translate(0,0)"><path class="background" aria-hidden="true" d="M0.5,0.5h500v200h-500Z" stroke="#ddd"></path><g><g class="mark-group role-axis" aria-hidden="true"><g transform="translate(0.5,0.5)"><path class="background" aria-hidden="true" d="M0,0h0v0h0Z" pointer-events="none"></path><g><g class="mark-rule role-axis-grid" pointer-events="none"><line transform="translate(0,187)" x2="500" y2="0" stroke="#ddd" stroke-width="1" opacity="1"></line><line transform="translate(0,153)" x2="500" y2="0" stroke="#ddd" stroke-width="1" opacity="1"></line><line transform="translate(0,120)" x2="500" y2="0" stroke="#ddd" stroke-width="1" opacity="1"></line><line transform="translate(0,87)" x2="500" y2="0" stroke="#ddd" stroke-width="1" opacity="1"></line><line transform="translate(0,53)" x2="500" y2="0" stroke="#ddd" stroke-width="1" opacity="1"></line><line transform="translate(0,20)" x2="500" y2="0" stroke="#ddd" stroke-width="1" opacity="1"></line></g></g><path class="foreground" aria-hidden="true" d="" pointer-events="none" display="none"></path></g></g><g class="mark-group role-axis" role="graphics-symbol" aria-roledescription="axis" aria-label="X-axis titled 'Circuit NO.' for a discrete scale with 7 values: Circuit 1, Circuit 2, Circuit 3, Circuit 4, Circuit 5, Circuit 6, Circuit 7"><g transform="translate(0.5,200.5)"><path class="background" aria-hidden="true" d="M0,0h0v0h0Z" pointer-events="none"></path><g><g class="mark-rule role-axis-tick" pointer-events="none"><line transform="translate(35,0)" x2="0" y2="5" stroke="#888" stroke-width="1" opacity="1"></line><line transform="translate(107,0)" x2="0" y2="5" stroke="#888" stroke-width="1" opacity="1"></line><line transform="translate(178,0)" x2="0" y2="5" stroke="#888" stroke-width="1" opacity="1"></line><line transform="translate(250,0)" x2="0" y2="5" stroke="#888" stroke-width="1" opacity="1"></line><line transform="translate(321,0)" x2="0" y2="5" stroke="#888" stroke-width="1" opacity="1"></line><line transform="translate(392,0)" x2="0" y2="5" stroke="#888" stroke-width="1" opacity="1"></line><line transform="translate(464,0)" x2="0" y2="5" stroke="#888" stroke-width="1" opacity="1"></line></g><g class="mark-text role-axis-label" pointer-events="none"><text text-anchor="end" transform="translate(35.214285714285715,7) rotate(270) translate(0,3)" font-family="sans-serif" font-size="10px" fill="#000" opacity="1">Circuit 1</text><text text-anchor="end" transform="translate(106.64285714285714,7) rotate(270) translate(0,3)" font-family="sans-serif" font-size="10px" fill="#000" opacity="1">Circuit 2</text><text text-anchor="end" transform="translate(178.07142857142858,7) rotate(270) translate(0,3)" font-family="sans-serif" font-size="10px" fill="#000" opacity="1">Circuit 3</text><text text-anchor="end" transform="translate(249.5,7) rotate(270) translate(0,3)" font-family="sans-serif" font-size="10px" fill="#000" opacity="1">Circuit 4</text><text text-anchor="end" transform="translate(320.92857142857144,7) rotate(270) translate(0,3)" font-family="sans-serif" font-size="10px" fill="#000" opacity="1">Circuit 5</text><text text-anchor="end" transform="translate(392.3571428571429,7) rotate(270) translate(0,3)" font-family="sans-serif" font-size="10px" fill="#000" opacity="1">Circuit 6</text><text text-anchor="end" transform="translate(463.7857142857143,7) rotate(270) translate(0,3)" font-family="sans-serif" font-size="10px" fill="#000" opacity="1">Circuit 7</text></g><g class="mark-rule role-axis-domain" pointer-events="none"><line transform="translate(0,0)" x2="500" y2="0" stroke="#888" stroke-width="1" opacity="1"></line></g><g class="mark-text role-axis-title" pointer-events="none"><text text-anchor="middle" transform="translate(250,57)" font-family="sans-serif" font-size="11px" font-weight="bold" fill="#000" opacity="1">Circuit NO.</text></g></g><path class="foreground" aria-hidden="true" d="" pointer-events="none" display="none"></path></g></g><g class="mark-group role-axis" role="graphics-symbol" aria-roledescription="axis" aria-label="Y-axis titled 'δrange' for a linear scale with values from 280 to 580"><g transform="translate(0.5,0.5)"><path class="background" aria-hidden="true" d="M0,0h0v0h0Z" pointer-events="none"></path><g><g class="mark-rule role-axis-tick" pointer-events="none"><line transform="translate(0,187)" x2="-5" y2="0" stroke="#888" stroke-width="1" opacity="1"></line><line transform="translate(0,153)" x2="-5" y2="0" stroke="#888" stroke-width="1" opacity="1"></line><line transform="translate(0,120)" x2="-5" y2="0" stroke="#888" stroke-width="1" opacity="1"></line><line transform="translate(0,87)" x2="-5" y2="0" stroke="#888" stroke-width="1" opacity="1"></line><line transform="translate(0,53)" x2="-5" y2="0" stroke="#888" stroke-width="1" opacity="1"></line><line transform="translate(0,20)" x2="-5" y2="0" stroke="#888" stroke-width="1" opacity="1"></line></g><g class="mark-text role-axis-label" pointer-events="none"><text text-anchor="end" transform="translate(-7,189.66666666666666)" font-family="sans-serif" font-size="10px" fill="#000" opacity="1">300</text><text text-anchor="end" transform="translate(-7,156.33333333333331)" font-family="sans-serif" font-size="10px" fill="#000" opacity="1">350</text><text text-anchor="end" transform="translate(-7,123)" font-family="sans-serif" font-size="10px" fill="#000" opacity="1">400</text><text text-anchor="end" transform="translate(-7,89.66666666666667)" font-family="sans-serif" font-size="10px" fill="#000" opacity="1">450</text><text text-anchor="end" transform="translate(-7,56.33333333333334)" font-family="sans-serif" font-size="10px" fill="#000" opacity="1">500</text><text text-anchor="end" transform="translate(-7,22.999999999999996)" font-family="sans-serif" font-size="10px" fill="#000" opacity="1">550</text></g><g class="mark-rule role-axis-domain" pointer-events="none"><line transform="translate(0,200)" x2="0" y2="-200" stroke="#888" stroke-width="1" opacity="1"></line></g><g class="mark-text role-axis-title" pointer-events="none"><text text-anchor="middle" transform="translate(-29,100) rotate(-90) translate(0,-2)" font-family="sans-serif" font-size="11px" font-weight="bold" fill="#000" opacity="1">δrange</text></g></g><path class="foreground" aria-hidden="true" d="" pointer-events="none" display="none"></path></g></g><g class="mark-symbol role-mark layer_0_layer_0_marks" role="graphics-symbol" aria-roledescription="symbol mark container"></g><g class="mark-rule role-mark layer_0_layer_1_layer_0_marks" aria-hidden="true"><line transform="translate(35.714285714285715,136.66666666666666)" x2="0" y2="-14.166666666666643" stroke="black"></line><line transform="translate(107.14285714285714,146.66666666666669)" x2="0" y2="-18.33333333333337" stroke="black"></line><line transform="translate(178.57142857142858,170)" x2="0" y2="-30" stroke="black"></line><line transform="translate(250,186.66666666666666)" x2="0" y2="-41.66666666666666" stroke="black"></line><line transform="translate(321.42857142857144,130)" x2="0" y2="-11.666666666666671" stroke="black"></line><line transform="translate(392.8571428571429,173.33333333333334)" x2="0" y2="-32.50000000000003" stroke="black"></line><line transform="translate(464.2857142857143,156.66666666666666)" x2="0" y2="-24.166666666666657" stroke="black"></line></g><g class="mark-rule role-mark layer_0_layer_1_layer_1_marks" aria-hidden="true"><line transform="translate(35.714285714285715,94.16666666666667)" x2="0" y2="-14.166666666666671" stroke="black"></line><line transform="translate(107.14285714285714,91.66666666666667)" x2="0" y2="-18.33333333333333" stroke="black"></line><line transform="translate(178.57142857142858,80)" x2="0" y2="-30" stroke="black"></line><line transform="translate(250,61.66666666666667)" x2="0" y2="-41.66666666666667" stroke="black"></line><line transform="translate(321.42857142857144,95)" x2="0" y2="-11.666666666666671" stroke="black"></line><line transform="translate(392.8571428571429,75.83333333333333)" x2="0" y2="-32.49999999999999" stroke="black"></line><line transform="translate(464.2857142857143,84.16666666666666)" x2="0" y2="-24.16666666666665" stroke="black"></line></g><g class="mark-rect role-mark layer_1_layer_0_marks" aria-hidden="true"><path d="M28.714285714285715,94.16666666666667h14v28.333333333333343h-14Z" fill="rgb(57, 59, 121)"></path><path d="M100.14285714285714,91.66666666666667h14v36.66666666666664h-14Z" fill="rgb(57, 59, 121)"></path><path d="M171.57142857142858,80h14v60h-14Z" fill="rgb(57, 59, 121)"></path><path d="M243,61.66666666666667h14v83.33333333333333h-14Z" fill="rgb(57, 59, 121)"></path><path d="M314.42857142857144,95h14v23.33333333333333h-14Z" fill="rgb(57, 59, 121)"></path><path d="M385.8571428571429,75.83333333333333h14v64.99999999999999h-14Z" fill="rgb(57, 59, 121)"></path><path d="M457.2857142857143,84.16666666666666h14v48.33333333333334h-14Z" fill="rgb(57, 59, 121)"></path></g><g class="mark-rect role-mark layer_1_layer_1_marks" role="graphics-object" aria-roledescription="rect mark container"><path aria-label="δrange: 417.5; Circuit NO.: Circuit 1; Max of δrange: 460; Q3 of δrange: 438.75; Median of δrange: 417.5; Q1 of δrange: 396.25; Min of δrange: 375; value: 1" role="graphics-symbol" aria-roledescription="box" d="M28.714285714285715,107.83333333333334h14v1h-14Z" fill="white" opacity="0.7"></path><path aria-label="δrange: 415; Circuit NO.: Circuit 2; Max of δrange: 470; Q3 of δrange: 442.5; Median of δrange: 415; Q1 of δrange: 387.5; Min of δrange: 360; value: 1" role="graphics-symbol" aria-roledescription="box" d="M100.14285714285714,109.50000000000001h14v1h-14Z" fill="white" opacity="0.7"></path><path aria-label="δrange: 415; Circuit NO.: Circuit 3; Max of δrange: 505; Q3 of δrange: 460; Median of δrange: 415; Q1 of δrange: 370; Min of δrange: 325; value: 1" role="graphics-symbol" aria-roledescription="box" d="M171.57142857142858,109.50000000000001h14v1h-14Z" fill="white" opacity="0.7"></path><path aria-label="δrange: 425; Circuit NO.: Circuit 4; Max of δrange: 550; Q3 of δrange: 487.5; Median of δrange: 425; Q1 of δrange: 362.5; Min of δrange: 300; value: 1" role="graphics-symbol" aria-roledescription="box" d="M243,102.83333333333331h14v1h-14Z" fill="white" opacity="0.7"></path><path aria-label="δrange: 420; Circuit NO.: Circuit 5; Max of δrange: 455; Q3 of δrange: 437.5; Median of δrange: 420; Q1 of δrange: 402.5; Min of δrange: 385; value: 1" role="graphics-symbol" aria-roledescription="box" d="M314.42857142857144,106.16666666666667h14v1h-14Z" fill="white" opacity="0.7"></path><path aria-label="δrange: 417.5; Circuit NO.: Circuit 6; Max of δrange: 515; Q3 of δrange: 466.25; Median of δrange: 417.5; Q1 of δrange: 368.75; Min of δrange: 320; value: 1" role="graphics-symbol" aria-roledescription="box" d="M385.8571428571429,107.83333333333334h14v1h-14Z" fill="white" opacity="0.7"></path><path aria-label="δrange: 417.5; Circuit NO.: Circuit 7; Max of δrange: 490; Q3 of δrange: 453.75; Median of δrange: 417.5; Q1 of δrange: 381.25; Min of δrange: 345; value: 1" role="graphics-symbol" aria-roledescription="box" d="M457.2857142857143,107.83333333333334h14v1h-14Z" fill="white" opacity="0.7"></path></g></g><path class="foreground" aria-hidden="true" d="" display="none"></path></g></g></g></svg>
